<svg width="29" height="29" viewBox="0 0 29 29" fill="none" xmlns="http://www.w3.org/2000/svg">
<g clip-path="url(#clip0_452_603)">
<path d="M29 14.5886C29 6.5316 22.5081 0 14.5 0C6.49192 0 0 6.53148 0 14.5886C0 21.8702 5.30247 27.9056 12.2344 29V18.8056H8.55273V14.5886H12.2344V11.3746C12.2344 7.71829 14.3992 5.69868 17.7112 5.69868C19.2977 5.69868 20.957 5.98361 20.957 5.98361V9.57378H19.1287C17.3273 9.57378 16.7656 10.6984 16.7656 11.8521V14.5886H20.7871L20.1442 18.8056H16.7656V29C23.6975 27.9056 29 21.8703 29 14.5886Z" fill="#1877F2"/>
<path d="M19.2137 18.3981L19.8356 14.0874H15.9452V11.2901C15.9452 10.1106 16.4887 8.96117 18.2312 8.96117H20V5.29126C20 5.29126 18.3947 5 16.8599 5C13.6559 5 11.5616 7.06447 11.5616 10.8019V14.0874H8V18.3981H11.5616V28.8188C12.2867 28.9396 13.0195 29.0002 13.7534 29C14.4873 29.0002 15.2201 28.9397 15.9452 28.8188V18.3981H19.2137Z" fill="white"/>
</g>
<defs>
<clipPath id="clip0_452_603">
<rect width="29" height="29" fill="white"/>
</clipPath>
</defs>
</svg>
