<svg width="29" height="29" viewBox="0 0 29 29" fill="none" xmlns="http://www.w3.org/2000/svg">
<path d="M22.2031 0H6.79688C3.04306 0 0 3.04306 0 6.79688V22.2031C0 25.9569 3.04306 29 6.79688 29H22.2031C25.9569 29 29 25.9569 29 22.2031V6.79688C29 3.04306 25.9569 0 22.2031 0Z" fill="url(#paint0_radial_452_607)"/>
<path d="M22.2031 0H6.79688C3.04306 0 0 3.04306 0 6.79688V22.2031C0 25.9569 3.04306 29 6.79688 29H22.2031C25.9569 29 29 25.9569 29 22.2031V6.79688C29 3.04306 25.9569 0 22.2031 0Z" fill="url(#paint1_radial_452_607)"/>
<path d="M14.501 3C11.3779 3 10.9858 3.01368 9.75924 3.06946C8.53495 3.12558 7.69924 3.31935 6.96808 3.60374C6.21161 3.89745 5.57002 4.2904 4.93085 4.9298C4.29111 5.56907 3.89815 6.21065 3.60352 6.96677C3.31832 7.69816 3.12431 8.5342 3.06923 9.75791C3.01437 10.9846 3 11.3767 3 14.5C3 17.6233 3.0138 18.014 3.06946 19.2406C3.12581 20.4649 3.31959 21.3006 3.60375 22.0317C3.89769 22.7882 4.29065 23.4298 4.93005 24.0689C5.5691 24.7087 6.21069 25.1025 6.96658 25.3963C7.69833 25.6806 8.53414 25.8744 9.7582 25.9305C10.9849 25.9863 11.3766 26 14.4997 26C17.6232 26 18.0139 25.9863 19.2405 25.9305C20.4648 25.8744 21.3014 25.6806 22.0332 25.3963C22.7893 25.1025 23.43 24.7087 24.0689 24.0689C24.7087 23.4298 25.1015 22.7882 25.3962 22.0321C25.6789 21.3006 25.873 20.4646 25.9305 19.2408C25.9856 18.0142 26 17.6233 26 14.5C26 11.3767 25.9856 10.9848 25.9305 9.75814C25.873 8.53386 25.6789 7.69828 25.3962 6.96712C25.1015 6.21065 24.7087 5.56907 24.0689 4.9298C23.4293 4.29017 22.7895 3.89722 22.0325 3.60386C21.2994 3.31935 20.4632 3.12546 19.2389 3.06946C18.0122 3.01368 17.6217 3 14.4975 3H14.501ZM13.4694 5.07239C13.7756 5.07193 14.1173 5.07239 14.501 5.07239C17.5717 5.07239 17.9355 5.08343 19.1481 5.13852C20.2693 5.18981 20.8779 5.37714 21.2833 5.53457C21.82 5.74295 22.2026 5.99216 22.6049 6.39477C23.0074 6.79726 23.2564 7.18055 23.4654 7.71725C23.6228 8.12205 23.8104 8.73062 23.8615 9.85186C23.9165 11.0642 23.9285 11.4283 23.9285 14.4974C23.9285 17.5664 23.9165 17.9306 23.8615 19.1428C23.8102 20.2641 23.6228 20.8727 23.4654 21.2776C23.257 21.8143 23.0074 22.1964 22.6049 22.5987C22.2024 23.0012 21.8202 23.2503 21.2833 23.4588C20.8784 23.6169 20.2693 23.8038 19.1481 23.855C17.9357 23.9101 17.5717 23.9221 14.501 23.9221C11.4303 23.9221 11.0663 23.9101 9.85412 23.855C8.73286 23.8033 8.12428 23.616 7.71856 23.4585C7.18197 23.25 6.79856 23.0009 6.39606 22.5984C5.99356 22.196 5.74448 21.8136 5.53552 21.2767C5.37809 20.8717 5.19052 20.2632 5.13946 19.1419C5.08438 17.9296 5.07333 17.5655 5.07333 14.4945C5.07333 11.4236 5.08438 11.0613 5.13946 9.84899C5.19075 8.72775 5.37809 8.11917 5.53552 7.7138C5.74401 7.1771 5.99357 6.79381 6.39618 6.39132C6.79868 5.98882 7.18197 5.73962 7.71868 5.53078C8.12405 5.37266 8.73286 5.18578 9.85412 5.13426C10.915 5.08631 11.3261 5.07193 13.4694 5.06952V5.07239ZM20.6397 6.98184C19.8779 6.98184 19.2597 7.59938 19.2597 8.36136C19.2597 9.12323 19.8779 9.74135 20.6397 9.74135C21.4016 9.74135 22.0197 9.12323 22.0197 8.36136C22.0197 7.59949 21.4016 6.98137 20.6397 6.98137V6.98184ZM14.501 8.59423C11.2396 8.59423 8.59532 11.2385 8.59532 14.5C8.59532 17.7615 11.2396 20.4045 14.501 20.4045C17.7626 20.4045 20.4059 17.7615 20.4059 14.5C20.4059 11.2386 17.7623 8.59423 14.5008 8.59423H14.501ZM14.501 10.6666C16.6181 10.6666 18.3344 12.3828 18.3344 14.5C18.3344 16.617 16.6181 18.3334 14.501 18.3334C12.3839 18.3334 10.6677 16.617 10.6677 14.5C10.6677 12.3828 12.3839 10.6666 14.501 10.6666Z" fill="white"/>
<defs>
<radialGradient id="paint0_radial_452_607" cx="0" cy="0" r="1" gradientUnits="userSpaceOnUse" gradientTransform="translate(7.70312 31.2336) rotate(-90) scale(28.7412 26.7315)">
<stop stop-color="#FFDD55"/>
<stop offset="0.1" stop-color="#FFDD55"/>
<stop offset="0.5" stop-color="#FF543E"/>
<stop offset="1" stop-color="#C837AB"/>
</radialGradient>
<radialGradient id="paint1_radial_452_607" cx="0" cy="0" r="1" gradientUnits="userSpaceOnUse" gradientTransform="translate(-4.85761 2.08902) rotate(78.681) scale(12.8475 52.9576)">
<stop stop-color="#3771C8"/>
<stop offset="0.128" stop-color="#3771C8"/>
<stop offset="1" stop-color="#6600FF" stop-opacity="0"/>
</radialGradient>
</defs>
</svg>
