<svg width="24" height="25" viewBox="0 0 24 25" fill="none" xmlns="http://www.w3.org/2000/svg">
<path d="M13 8.5C13.7956 8.5 14.5587 8.81607 15.1213 9.37868C15.6839 9.94129 16 10.7044 16 11.5C16 11.7652 16.1054 12.0196 16.2929 12.2071C16.4804 12.3946 16.7348 12.5 17 12.5C17.2652 12.5 17.5196 12.3946 17.7071 12.2071C17.8946 12.0196 18 11.7652 18 11.5C18 10.1739 17.4732 8.90215 16.5355 7.96447C15.5979 7.02678 14.3261 6.5 13 6.5C12.7348 6.5 12.4804 6.60536 12.2929 6.79289C12.1054 6.98043 12 7.23478 12 7.5C12 7.76522 12.1054 8.01957 12.2929 8.20711C12.4804 8.39464 12.7348 8.5 13 8.5Z" fill="#010101"/>
<path d="M13 4.5C14.8565 4.5 16.637 5.2375 17.9497 6.55025C19.2625 7.86301 20 9.64349 20 11.5C20 11.7652 20.1054 12.0196 20.2929 12.2071C20.4804 12.3946 20.7348 12.5 21 12.5C21.2652 12.5 21.5196 12.3946 21.7071 12.2071C21.8946 12.0196 22 11.7652 22 11.5C22 9.11305 21.0518 6.82387 19.364 5.13604C17.6761 3.44821 15.3869 2.5 13 2.5C12.7348 2.5 12.4804 2.60536 12.2929 2.79289C12.1054 2.98043 12 3.23478 12 3.5C12 3.76522 12.1054 4.01957 12.2929 4.20711C12.4804 4.39464 12.7348 4.5 13 4.5ZM21.75 16.41C21.695 16.2495 21.6 16.1056 21.4741 15.9919C21.3481 15.8781 21.1953 15.7984 21.03 15.76L15.03 14.39C14.8671 14.3531 14.6976 14.3575 14.5369 14.4029C14.3762 14.4484 14.2294 14.5333 14.11 14.65C13.97 14.78 13.96 14.79 13.31 16.03C11.1532 15.0362 9.42499 13.3009 8.44 11.14C9.71 10.5 9.72 10.5 9.85 10.35C9.96671 10.2306 10.0516 10.0838 10.0971 9.92308C10.1425 9.76238 10.1469 9.59286 10.11 9.43L8.74 3.5C8.70165 3.3347 8.62186 3.18187 8.50814 3.05591C8.39443 2.92995 8.25053 2.835 8.09 2.78C7.85647 2.69659 7.61531 2.6363 7.37 2.6C7.11725 2.5414 6.85933 2.5079 6.6 2.5C5.38 2.5 4.20998 2.98464 3.34731 3.84731C2.48464 4.70998 2 5.88 2 7.1C2.00529 11.1827 3.62949 15.0967 6.5164 17.9836C9.40331 20.8705 13.3173 22.4947 17.4 22.5C18.0041 22.5 18.6022 22.381 19.1603 22.1498C19.7184 21.9187 20.2255 21.5798 20.6527 21.1527C21.0798 20.7255 21.4187 20.2184 21.6498 19.6603C21.881 19.1022 22 18.5041 22 17.9C22.0003 17.6455 21.9802 17.3913 21.94 17.14C21.898 16.8916 21.8344 16.6474 21.75 16.41ZM17.4 20.5C13.8469 20.4974 10.4401 19.0847 7.92769 16.5723C5.41528 14.0599 4.00265 10.6531 4 7.1C4.00263 6.41125 4.27741 5.75146 4.76443 5.26443C5.25146 4.77741 5.91125 4.50263 6.6 4.5H6.93L8 9.14L7.46 9.42C6.6 9.87 5.92 10.23 6.28 11.01C6.86622 12.6696 7.81477 14.1777 9.05674 15.4249C10.2987 16.672 11.8029 17.6269 13.46 18.22C14.3 18.56 14.63 17.93 15.08 17.06L15.37 16.51L20 17.57V17.9C19.9974 18.5888 19.7226 19.2485 19.2356 19.7356C18.7485 20.2226 18.0888 20.4974 17.4 20.5Z" fill="#010101"/>
</svg>
