<svg width="29" height="29" viewBox="0 0 29 29" fill="none" xmlns="http://www.w3.org/2000/svg">
<g clip-path="url(#clip0_452_601)">
<path d="M19.2416 21.1512L21.6205 9.93638C21.7176 9.46168 21.661 9.12184 21.4506 8.91685C21.2402 8.71187 20.9624 8.67411 20.6172 8.80357L6.63504 14.1925C6.32217 14.3112 6.1091 14.4461 5.99581 14.5971C5.88253 14.7481 5.86905 14.8911 5.95536 15.0259C6.04167 15.1608 6.21429 15.266 6.47321 15.3415L10.0497 16.4581L18.3516 11.231C18.5781 11.08 18.7507 11.0476 18.8694 11.1339C18.9449 11.1879 18.9234 11.2688 18.8047 11.3767L12.0887 17.4453L11.8298 21.135C12.0779 21.135 12.3207 21.0164 12.558 20.779L14.3058 19.096L17.9308 21.7662C18.6213 22.1546 19.0582 21.9496 19.2416 21.1512ZM29 14.5C29 16.4635 28.617 18.3408 27.851 20.1317C27.085 21.9226 26.0547 23.4654 24.76 24.76C23.4654 26.0547 21.9226 27.085 20.1317 27.851C18.3408 28.617 16.4635 29 14.5 29C12.5365 29 10.6592 28.617 8.8683 27.851C7.07738 27.085 5.5346 26.0547 4.23996 24.76C2.94531 23.4654 1.91499 21.9226 1.149 20.1317C0.382999 18.3408 0 16.4635 0 14.5C0 12.5365 0.382999 10.6592 1.149 8.8683C1.91499 7.07738 2.94531 5.5346 4.23996 4.23996C5.5346 2.94531 7.07738 1.91499 8.8683 1.149C10.6592 0.382999 12.5365 0 14.5 0C16.4635 0 18.3408 0.382999 20.1317 1.149C21.9226 1.91499 23.4654 2.94531 24.76 4.23996C26.0547 5.5346 27.085 7.07738 27.851 8.8683C28.617 10.6592 29 12.5365 29 14.5Z" fill="url(#paint0_linear_452_601)"/>
</g>
<defs>
<linearGradient id="paint0_linear_452_601" x1="2.41667" y1="15.7083" x2="35.6458" y2="15.7083" gradientUnits="userSpaceOnUse">
<stop stop-color="#1877F2"/>
<stop offset="1" stop-color="#699BF7"/>
</linearGradient>
<clipPath id="clip0_452_601">
<rect width="29" height="29" fill="white"/>
</clipPath>
</defs>
</svg>
